<?xml version="1.0" encoding="UTF-8" standalone="no"?>
<svg
   xmlns:svg="http://www.w3.org/2000/svg"
   xmlns="http://www.w3.org/2000/svg"
   width="800.0"
   height="600.0"

>
    <g transform="scale(8.999999964, -8.999999964)   translate(2.2222223311111113,-27.222222331111112)" stroke-width="0.11111111155555554"  fill="none">
       <!-- hidden lines -->
       <g  stroke="rgb(200,200,200)" fill="none" stroke-dasharray="0.11111111155555554,0.11111111155555554" >

       </g>

       <!-- solid lines -->
       <g  stroke="rgb(40,40,40)" fill="none">
			<path d="M1.9999999999999996,25.0 L37.5,25.0 " />
			<path d="M2.0,13.000000000000002 L37.5,13.0 " />
			<path d="M37.5,13.000000000000002 L37.5,14.343573713239696 L37.5,15.670251207475776 L37.5,16.963348743462006 L37.5,18.2066048694107 L37.5,19.38438491818404 L37.5,20.481877622304804 L37.5,21.48528137423857 L37.5,22.381977789616357 L37.5,23.16069039073941 L37.5,23.811626414829032 L37.5,24.32659996370041 L37.5,24.699134946181886 L37.5,24.924546518718913 L37.5,25.0 " />
			<path d="M0.0,23.0 L0.0,22.937122098932427 L0.0,22.74927912181824 L0.0,22.438833303083676 L0.0,22.009688679024194 L0.0,21.467241992282844 L0.0,20.8183148246803 L0.0,20.071067811865476 L0.0,19.234898018587337 L0.0,18.32032076515337 L0.0,17.338837391175584 L0.0,16.302790619551672 L0.0,15.225209339563147 L0.0,14.119644761033081 L0.0,13.000000000000023 " />
			<path d="M-4.440892098500626e-16,13.000000000000002 L-4.440892098500626e-16,-12.999999999999998 " />
			<path d="M0.0,-13.000000000000002 L0.0,-14.119644761033081 L0.0,-15.225209339563145 L0.0,-16.302790619551672 L0.0,-17.338837391175584 L0.0,-18.32032076515337 L0.0,-19.234898018587337 L0.0,-20.071067811865476 L0.0,-20.8183148246803 L0.0,-21.467241992282844 L0.0,-22.009688679024194 L0.0,-22.438833303083676 L0.0,-22.74927912181824 L0.0,-22.937122098932427 L0.0,-23.0 " />
			<path d="M1.9999999999999996,25.0 L1.8744189609413728,24.996053456856544 L1.749333532871391,24.984229402628955 L1.6252373708285504,24.964574501457378 L1.5026202256702899,24.937166322257262 L1.3819660112501047,24.902113032590307 L1.2637508946306437,24.859552971776502 L1.1484414168698542,24.80965410493204 L1.0364926517965691,24.75261336008773 L0.9283464100420065,24.68865585100403 L0.8244294954150535,24.618033988749893 L0.7251520205026203,24.54102648555158 L0.6309057881426225,24.45793725484282 L0.5420627451571769,24.369094211857377 L0.4589735144484215,24.27484797949738 L0.3819660112501051,24.175570504584947 L0.3113441489959696,24.071653589957993 L0.2473866399122724,23.963507348203432 L0.1903458950679604,23.851558583130146 L0.14044702822349664,23.736249105369357 L0.09788696740969227,23.618033988749893 L0.06283367774273718,23.49737977432971 L0.035425498542622114,23.37476262917145 L0.015770597371043804,23.250666467128607 L0.003946543143456438,23.125581039058627 L-4.440892098500626e-16,23.0 " />
			<path d="M37.5,-13.0 L37.5,13.0 " />
			<path d="M1.9999999999999996,-12.999999999999998 L37.5,-13.000000000000002 " />
			<path d="M1.9999999999999996,13.000000000000002 L1.9999999999999996,-12.999999999999998 " />
			<path d="M15.5,-5.25 L15.704834473383102,-5.246002557997267 L15.909357017650962,-5.234016319433854 L16.113256178704926,-5.214059537373949 L16.316221451756153,-5.186162602704727 L16.517943754173178,-5.1503679978560575 L16.71811589616378,-5.106730232106755 L16.916433048574376,-5.055315758575946 L17.112593207094523,-4.9962028730259345 L17.306297652159675,-4.929481594630661 L17.497251403851806,-4.8552535288913585 L17.685163671105162,-4.77363171290813 L17.869748294533103,-4.684740443243088 L18.050724182201627,-4.5887150866372 L18.227815737686026,-4.485701873869065 L18.400753279758792,-4.375857677069561 L18.569273453069624,-4.2593497708314665 L18.7331196291922,-4.136355577477848 L18.89204229742693,-4.0070623968771235 L19.0457994447646,-3.8716671212162663 L19.194156924432264,-3.730375935166476 L19.33688881246015,-3.5834040018979354 L19.47377775172661,-3.4309751354217957 L19.604615282957155,-3.2733214597583533 L19.729202162173546,-3.1106830554504588 L19.84734866410951,-2.943307593960452 L19.95887487113102,-2.7714499605073737 L20.063610947221186,-2.595371865918827 L20.161397396612468,-2.415341448088552 L20.25208530667246,-2.231632863646646 L20.335536574673224,-2.0445258704642377 L20.411624118099,-1.8543054016283933 L20.480232068171887,-1.6612611315360295 L20.5412559463009,-1.4656870347675852 L20.594602823185625,-1.2678809384122303 L20.640191460332193,-1.0681440685263328 L20.677952433766148,-0.8667805914158652 L20.707828239753667,-0.6640971504412908 L20.729773382370283,-0.46040239905030916 L20.74375444278368,-0.2560065307495664 L20.749750130145035,-0.05122080673111231 L20.7477513140115,0.15364291812705258 L20.73776103825033,0.3582726701645152 L20.71979451640361,0.5623568320228741 L20.693879108520505,0.7655846171875751 L20.660054279492442,0.9676465432645077 L20.618371538954577,1.1682349032706423 L20.56889436284513,1.367044234221008 L20.51169809674198,1.5637717822984332 L20.44686984112381,1.7581179638976687 L20.37450831873042,1.9497868218418013 L20.294723724224276,2.1384864760762174 L20.207637556382245,2.3239295681537797 L20.113382433072964,2.50583369883434 L20.012101889301725,2.683921858132201 L19.90395015863033,2.857922847156633 L19.789091938304825,3.027571691103048 L19.66770213844874,3.19261004276592 L19.53996561570385,3.3527865759589632 L19.40607689172398,3.5078573682434584 L19.266239856950634,3.6575862723818915 L19.120667460121464,3.8017452759512427 L18.969581383984476,3.940114848568297 L18.813211707711776,4.072484276198205 L18.651796556526943,4.1986519820372 L18.48558173907958,4.3184258334808225 L18.31482037311931,4.43162343471018 L18.13977250003917,4.5380724044506975 L17.960704688875484,4.637610638480359 L17.777889630367174,4.730086556487703 L17.591605721692762,4.815359332903632 L17.402136642517377,4.89329911135552 L17.209770922995425,4.96378720241706 L17.014801504386753,5.026716264352666 L16.81752529295544,5.081990466581247 L16.618242707830518,5.12952563561036 L16.417257223517204,5.169249383218564 L16.21487490775528,5.201101216690738 L16.01140395542842,5.2250326309385065 L15.807154219234208,5.241007182365488 L15.602436737829604,5.249000544364882 L15.397563262170362,5.249000544364882 L15.192845780765758,5.241007182365485 L14.988596044571546,5.225032630938503 L14.785125092244686,5.201101216690733 L14.582742776482762,5.169249383218559 L14.381757292169448,5.129525635610353 L14.182474707044527,5.081990466581238 L13.985198495613213,5.026716264352657 L13.790229077004545,4.963787202417048 L13.597863357482593,4.893299111355509 L13.408394278307208,4.815359332903618 L13.222110369632794,4.730086556487689 L13.039295311124485,4.637610638480343 L12.860227499960798,4.53807240445068 L12.68517962688066,4.431623434710162 L12.51441826092039,4.318425833480803 L12.34820344347303,4.1986519820371795 L12.186788292288197,4.072484276198184 L12.030418616015499,3.9401148485682747 L11.879332539878511,3.801745275951219 L11.733760143049341,3.657586272381867 L11.593923108275996,3.5078573682434335 L11.460034384296133,3.352786575958939 L11.332297861551243,3.1926100427658968 L11.21090806169516,3.0275716911030264 L11.096049841369656,2.8579228471566127 L10.987898110698264,2.683921858132182 L10.886617566927029,2.5058336988343224 L10.792362443617748,2.3239295681537646 L10.705276275775716,2.1384864760762037 L10.625491681269576,1.9497868218417884 L10.553130158876185,1.7581179638976567 L10.488301903258016,1.5637717822984225 L10.431105637154872,1.367044234220998 L10.381628461045421,1.1682349032706334 L10.339945720507558,0.9676465432644998 L10.306120891479495,0.7655846171875682 L10.28020548359639,0.5623568320228685 L10.262238961749668,0.3582726701645106 L10.252248685988501,0.15364291812704922 L10.250249869854965,-0.051220806731114524 L10.256245557216321,-0.2560065307495675 L10.270226617629715,-0.46040239905030905 L10.292171760246335,-0.6640971504412896 L10.322047566233852,-0.8667805914158628 L10.359808539667807,-1.0681440685263293 L10.405397176814375,-1.2678809384122256 L10.458744053699096,-1.4656870347675794 L10.51976793182811,-1.6612611315360224 L10.588375881900998,-1.8543054016283858 L10.664463425326772,-2.044525870464229 L10.747914693327537,-2.2316328636466367 L10.838602603387526,-2.4153414480885416 L10.93638905277881,-2.5953718659188154 L11.041125128868972,-2.7714499605073613 L11.152651335890482,-2.943307593960439 L11.270797837826443,-3.110683055450446 L11.395384717042834,-3.273321459758339 L11.526222248273378,-3.430975135421781 L11.663111187539837,-3.5834040018979207 L11.805843075567722,-3.730375935166461 L11.954200555235383,-3.8716671212162512 L12.107957702573053,-4.007062396877108 L12.266880370807781,-4.136355577477833 L12.430726546930355,-4.259349770831451 L12.599246720241187,-4.375857677069546 L12.77218426231395,-4.485701873869051 L12.949275817798348,-4.588715086637186 L13.13025170546687,-4.684740443243075 L13.314836328894808,-4.7736317129081165 L13.502748596148164,-4.855253528891346 L13.693702347840292,-4.92948159463065 L13.887406792905441,-4.996202873025923 L14.083566951425587,-5.0553157585759365 L14.28188410383618,-5.106730232106745 L14.482056245826783,-5.15036799785605 L14.683778548243804,-5.186162602704721 L14.88674382129503,-5.214059537373943 L15.090642982348994,-5.2340163194338505 L15.295165526616852,-5.246002557997265 L15.499999999999952,-5.25 " />
			<path d="M2.0,-25.0 L1.8744189609413733,-24.996053456856544 L1.7493335328713915,-24.984229402628955 L1.6252373708285508,-24.964574501457378 L1.5026202256702903,-24.937166322257262 L1.381966011250105,-24.902113032590307 L1.2637508946306442,-24.859552971776502 L1.1484414168698547,-24.80965410493204 L1.0364926517965696,-24.75261336008773 L0.9283464100420069,-24.68865585100403 L0.824429495415054,-24.618033988749893 L0.7251520205026207,-24.54102648555158 L0.630905788142623,-24.45793725484282 L0.5420627451571773,-24.369094211857377 L0.45897351444842194,-24.27484797949738 L0.38196601125010554,-24.175570504584947 L0.31134414899597007,-24.071653589957993 L0.24738663991227283,-23.963507348203432 L0.19034589506796085,-23.851558583130146 L0.14044702822349708,-23.736249105369357 L0.09788696740969272,-23.618033988749893 L0.06283367774273763,-23.49737977432971 L0.03542549854262256,-23.37476262917145 L0.015770597371044248,-23.250666467128607 L0.003946543143456882,-23.125581039058627 L0.0,-23.0 " />
			<path d="M41.0,13.000000000000002 L41.0,13.951698046878118 L41.0,14.891427938628674 L41.0,15.807372026618921 L41.0,16.688011782499245 L41.0,17.522272650380362 L41.0,18.299663315799236 L41.0,19.010407640085656 L41.0,19.645567600978254 L41.0,20.197155693440415 L41.0,20.658235377170563 L41.0,21.023008307621126 L41.0,21.2868872535455 L41.0,21.446553784092565 L41.0,21.5 " />
			<path d="M37.5,25.0 L37.666536705383095,24.996035687140527 L37.83269615156464,24.984151729005795 L37.9981019339565,24.964375046583264 L38.162379355261436,24.936750440419473 L38.325156274282996,24.901340489132394 L38.486063948945,24.858225407650743 L38.64473787161098,24.80750286550134 L38.80081859481115,24.749287765556254 L38.9539525455066,24.683711983740814 L39.10379282604594,24.61092407029223 L39.25,24.531088913245537 L39.392242861094594,24.444387364909133 L39.53019918349919,24.351015832176174 L39.663556451772116,24.251185831599756 L39.792012568808495,24.145123510239905 L39.91527654018739,24.033069133367746 L40.033069133367746,23.915276540187392 L40.145123510239905,23.792012568808495 L40.251185831599756,23.663556451772116 L40.351015832176174,23.530199183499192 L40.44438736490913,23.39224286109459 L40.53108891324553,23.25 L40.610924070292235,23.103792826045936 L40.683711983740814,22.953952545506603 L40.749287765556254,22.800818594811144 L40.80750286550134,22.644737871610975 L40.85822540765074,22.486063948945002 L40.901340489132394,22.325156274282993 L40.93675044041947,22.162379355261432 L40.964375046583264,21.998101933956494 L40.984151729005795,21.832696151564637 L40.99603568714053,21.666536705383095 L41.0,21.499999999999996 " />
			<path d="M41.0,-13.0 L41.0,13.0 " />
			<path d="M41.0,-21.5 L41.0,-21.446553784092565 L41.0,-21.2868872535455 L41.0,-21.023008307621126 L41.0,-20.658235377170563 L41.0,-20.197155693440415 L41.0,-19.645567600978254 L41.0,-19.010407640085656 L41.0,-18.299663315799236 L41.0,-17.522272650380362 L41.0,-16.688011782499245 L41.0,-15.807372026618923 L41.0,-14.891427938628674 L41.0,-13.95169804687812 L41.0,-13.000000000000021 " />
			<path d="M41.0,-17.7 L41.0,-17.68931075681851 L41.0,-17.6573774507091 L41.0,-17.604601661524224 L41.0,-17.531647075434112 L41.0,-17.439431138688082 L41.0,-17.32911352019565 L41.0,-17.202081528017132 L41.0,-17.05993266315985 L41.0,-16.904454530076073 L41.0,-16.73760235649985 L41.0,-16.561474405323786 L41.0,-16.378285587725735 L41.0,-16.190339609375624 L41.0,-16.000000000000014 " />
			<path d="M2.0,-25.0 L37.5,-25.0 " />
			<path d="M37.5,-25.0 L37.5,-24.924546518718913 L37.5,-24.699134946181886 L37.5,-24.32659996370041 L37.5,-23.811626414829032 L37.5,-23.16069039073941 L37.5,-22.381977789616357 L37.5,-21.485281374238575 L37.5,-20.481877622304804 L37.5,-19.38438491818404 L37.5,-18.2066048694107 L37.5,-16.963348743462006 L37.5,-15.670251207475776 L37.5,-14.343573713239696 L37.5,-13.000000000000028 " />
			<path d="M37.5,-25.0 L37.666536705383095,-24.996035687140527 L37.83269615156464,-24.984151729005795 L37.9981019339565,-24.964375046583264 L38.162379355261436,-24.936750440419473 L38.325156274282996,-24.901340489132394 L38.486063948945,-24.858225407650743 L38.64473787161098,-24.80750286550134 L38.80081859481115,-24.749287765556254 L38.9539525455066,-24.683711983740814 L39.10379282604594,-24.61092407029223 L39.25,-24.531088913245537 L39.392242861094594,-24.444387364909133 L39.53019918349919,-24.351015832176174 L39.663556451772116,-24.251185831599756 L39.792012568808495,-24.145123510239905 L39.91527654018739,-24.033069133367746 L40.033069133367746,-23.915276540187392 L40.145123510239905,-23.792012568808495 L40.251185831599756,-23.663556451772116 L40.351015832176174,-23.530199183499192 L40.44438736490913,-23.39224286109459 L40.53108891324553,-23.25 L40.610924070292235,-23.103792826045936 L40.683711983740814,-22.953952545506603 L40.749287765556254,-22.800818594811144 L40.80750286550134,-22.644737871610975 L40.85822540765074,-22.486063948945002 L40.901340489132394,-22.325156274282993 L40.93675044041947,-22.162379355261432 L40.964375046583264,-21.998101933956494 L40.984151729005795,-21.832696151564637 L40.99603568714053,-21.666536705383095 L41.0,-21.499999999999996 " />
			<path d="M41.0,-16.89501953125 L41.6,-16.89501953125 " />
			<path d="M41.6,-16.89501953125 L41.6,-16.77197265625 " />
			<path d="M41.0,-11.4775390625 L41.6,-11.4775390625 " />
			<path d="M41.6,-11.57666015625 L41.6,-11.553428649902344 L41.6,-11.533294677734375 L41.6,-11.516258239746094 L41.6,-11.5023193359375 L41.6,-11.491477966308594 L41.6,-11.483734130859375 L41.6,-11.479087829589844 L41.6,-11.4775390625 " />
			<path d="M41.6,-13.482177734375 L41.6,-13.421528816223145 L41.6,-13.357929229736328 L41.6,-13.29137897491455 L41.6,-13.221878051757812 L41.6,-13.149426460266113 L41.6,-13.074024200439453 L41.6,-12.995671272277832 L41.6,-12.91436767578125 L41.6,-12.830113410949707 L41.6,-12.742908477783203 L41.6,-12.652752876281738 L41.6,-12.559646606445312 L41.6,-12.463589668273926 L41.6,-12.364582061767578 L41.6,-12.26262378692627 L41.6,-12.157714843750004 " />
			<path d="M41.0,-14.0546875 L41.6,-14.0546875 " />
			<path d="M41.6,-14.0546875 L41.6,-14.0408353805542 L41.6,-14.024059295654297 L41.6,-14.004359245300293 L41.6,-13.981735229492188 L41.6,-13.95618724822998 L41.6,-13.927715301513672 L41.6,-13.896319389343262 L41.6,-13.86199951171875 L41.6,-13.824755668640137 L41.6,-13.784587860107422 L41.6,-13.741496086120605 L41.6,-13.695480346679688 L41.6,-13.646540641784668 L41.6,-13.594676971435547 L41.6,-13.539889335632324 L41.6,-13.482177734375002 " />
			<path d="M41.6,-14.719482421875 L41.6,-14.647411346435547 L41.6,-14.572189331054688 L41.6,-14.493816375732422 L41.6,-14.41229248046875 L41.6,-14.327617645263672 L41.6,-14.239791870117188 L41.6,-14.148815155029297 L41.6,-14.054687500000002 " />
			<path d="M41.6,-15.31591796875 L41.6,-15.160720825195312 L41.6,-15.00958251953125 L41.6,-14.862503051757812 L41.6,-14.719482421875002 " />
			<path d="M41.6,-16.37548828125 L41.6,-16.324886322021484 L41.6,-16.272201538085938 L41.6,-16.21743392944336 L41.6,-16.16058349609375 L41.6,-16.10165023803711 L41.6,-16.040634155273438 L41.6,-15.977535247802734 L41.6,-15.912353515625 L41.6,-15.845088958740234 L41.6,-15.775741577148438 L41.6,-15.70431137084961 L41.6,-15.63079833984375 L41.6,-15.55520248413086 L41.6,-15.477523803710938 L41.6,-15.397762298583984 L41.6,-15.315917968750004 " />
			<path d="M41.0,-16.77197265625 L41.6,-16.77197265625 " />
			<path d="M41.6,-16.77197265625 L41.6,-16.770423889160156 L41.6,-16.765777587890625 L41.6,-16.758033752441406 L41.6,-16.7471923828125 L41.6,-16.733253479003906 L41.6,-16.716217041015625 L41.6,-16.696083068847656 L41.6,-16.6728515625 L41.6,-16.646522521972656 L41.6,-16.617095947265625 L41.6,-16.584571838378906 L41.6,-16.5489501953125 L41.6,-16.510231018066406 L41.6,-16.468414306640625 L41.6,-16.423500061035156 L41.6,-16.37548828125 " />
			<path d="M41.0,-11.57666015625 L41.6,-11.57666015625 " />
			<path d="M41.0,-12.15771484375 L41.6,-12.15771484375 " />
			<path d="M41.6,-12.15771484375 L41.6,-11.57666015625 " />
			<path d="M1.9999999999999996,25.0 L1.8744189609413728,24.996053456856544 L1.749333532871391,24.984229402628955 L1.6252373708285504,24.964574501457378 L1.5026202256702899,24.937166322257262 L1.3819660112501047,24.902113032590307 L1.2637508946306437,24.859552971776502 L1.1484414168698542,24.80965410493204 L1.0364926517965691,24.75261336008773 L0.9283464100420065,24.68865585100403 L0.8244294954150535,24.618033988749893 L0.7251520205026203,24.54102648555158 L0.6309057881426225,24.45793725484282 L0.5420627451571769,24.369094211857377 L0.4589735144484215,24.27484797949738 L0.3819660112501051,24.175570504584947 L0.3113441489959696,24.071653589957993 L0.2473866399122724,23.963507348203432 L0.1903458950679604,23.851558583130146 L0.14044702822349664,23.736249105369357 L0.09788696740969227,23.618033988749893 L0.06283367774273718,23.49737977432971 L0.035425498542622114,23.37476262917145 L0.015770597371043804,23.250666467128607 L0.003946543143456438,23.125581039058627 L-4.440892098500626e-16,23.0 " />
			<path d="M2.0,25.0 L2.0,24.924546518718913 L2.0,24.699134946181886 L2.0,24.32659996370041 L2.0,23.811626414829032 L2.0,23.16069039073941 L2.0,22.381977789616357 L2.0,21.485281374238575 L2.0,20.481877622304804 L2.0,19.38438491818404 L2.0,18.2066048694107 L2.0,16.963348743462006 L2.0,15.670251207475776 L2.0,14.343573713239696 L2.0,13.000000000000028 " />
			<path d="M2.0,13.000000000000002 L1.7760710477933843,13.000000000000002 L1.5549581320873713,13.000000000000002 L1.3394418760896658,13.000000000000002 L1.1322325217648839,13.000000000000002 L0.9359358469693269,13.000000000000002 L0.753020396282533,13.000000000000002 L0.5857864376269051,13.000000000000002 L0.4363370350639404,13.000000000000002 L0.30655160154343175,13.000000000000002 L0.1980622641951617,13.000000000000002 L0.11223333938326485,13.000000000000002 L0.05014417563635276,13.000000000000002 L0.012575580213514792,13.000000000000002 L2.480654570646834e-16,13.000000000000002 " />
			<path d="M37.5,25.0 L37.666536705383095,24.996035687140527 L37.83269615156464,24.984151729005795 L37.9981019339565,24.964375046583264 L38.162379355261436,24.936750440419473 L38.325156274282996,24.901340489132394 L38.486063948945,24.858225407650743 L38.64473787161098,24.80750286550134 L38.80081859481115,24.749287765556254 L38.9539525455066,24.683711983740814 L39.10379282604594,24.61092407029223 L39.25,24.531088913245537 L39.392242861094594,24.444387364909133 L39.53019918349919,24.351015832176174 L39.663556451772116,24.251185831599756 L39.792012568808495,24.145123510239905 L39.91527654018739,24.033069133367746 L40.033069133367746,23.915276540187392 L40.145123510239905,23.792012568808495 L40.251185831599756,23.663556451772116 L40.351015832176174,23.530199183499192 L40.44438736490913,23.39224286109459 L40.53108891324553,23.25 L40.610924070292235,23.103792826045936 L40.683711983740814,22.953952545506603 L40.749287765556254,22.800818594811144 L40.80750286550134,22.644737871610975 L40.85822540765074,22.486063948945002 L40.901340489132394,22.325156274282993 L40.93675044041947,22.162379355261432 L40.964375046583264,21.998101933956494 L40.984151729005795,21.832696151564637 L40.99603568714053,21.666536705383095 L41.0,21.499999999999996 " />
			<path d="M1.9999999999999996,-12.999999999999998 L1.7760710477933839,-12.999999999999998 L1.5549581320873709,-12.999999999999998 L1.3394418760896654,-12.999999999999998 L1.1322325217648834,-12.999999999999998 L0.9359358469693264,-12.999999999999998 L0.7530203962825326,-12.999999999999998 L0.5857864376269046,-12.999999999999998 L0.43633703506393995,-12.999999999999998 L0.3065516015434313,-12.999999999999998 L0.19806226419516126,-12.999999999999998 L0.11223333938326441,-12.999999999999998 L0.05014417563635232,-12.999999999999998 L0.012575580213514348,-12.999999999999998 L-1.960237527853792e-16,-12.999999999999998 " />
			<path d="M2.0,-13.000000000000002 L2.0,-14.343573713239696 L2.0,-15.670251207475776 L2.0,-16.963348743462006 L2.0,-18.2066048694107 L2.0,-19.38438491818404 L2.0,-20.481877622304804 L2.0,-21.48528137423857 L2.0,-22.381977789616357 L2.0,-23.16069039073941 L2.0,-23.811626414829032 L2.0,-24.32659996370041 L2.0,-24.699134946181886 L2.0,-24.924546518718913 L2.0,-25.0 " />
			<path d="M37.5,13.0 L37.89187566636158,13.0 L38.2788232688471,13.0 L38.655976716843085,13.0 L39.01859308691145,13.0 L39.36211226780368,13.0 L39.682214306505564,13.0 L39.974873734152915,13.0 L40.236410188638104,13.0 L40.463534697298996,13.0 L40.653391037658466,13.0 L40.803591656079284,13.0 L40.912247692636384,13.0 L40.97799273462635,13.0 L41.0,13.0 " />
			<path d="M37.5,-13.000000000000002 L37.89187566636158,-13.000000000000002 L38.2788232688471,-13.000000000000002 L38.655976716843085,-13.000000000000002 L39.01859308691145,-13.000000000000002 L39.36211226780368,-13.000000000000002 L39.682214306505564,-13.000000000000002 L39.974873734152915,-13.000000000000002 L40.236410188638104,-13.000000000000002 L40.463534697298996,-13.000000000000002 L40.653391037658466,-13.000000000000002 L40.803591656079284,-13.000000000000002 L40.912247692636384,-13.000000000000002 L40.97799273462635,-13.000000000000002 L41.0,-13.000000000000002 " />
			<path d="M37.5,-25.0 L37.666536705383095,-24.996035687140527 L37.83269615156464,-24.984151729005795 L37.9981019339565,-24.964375046583264 L38.162379355261436,-24.936750440419473 L38.325156274282996,-24.901340489132394 L38.486063948945,-24.858225407650743 L38.64473787161098,-24.80750286550134 L38.80081859481115,-24.749287765556254 L38.9539525455066,-24.683711983740814 L39.10379282604594,-24.61092407029223 L39.25,-24.531088913245537 L39.392242861094594,-24.444387364909133 L39.53019918349919,-24.351015832176174 L39.663556451772116,-24.251185831599756 L39.792012568808495,-24.145123510239905 L39.91527654018739,-24.033069133367746 L40.033069133367746,-23.915276540187392 L40.145123510239905,-23.792012568808495 L40.251185831599756,-23.663556451772116 L40.351015832176174,-23.530199183499192 L40.44438736490913,-23.39224286109459 L40.53108891324553,-23.25 L40.610924070292235,-23.103792826045936 L40.683711983740814,-22.953952545506603 L40.749287765556254,-22.800818594811144 L40.80750286550134,-22.644737871610975 L40.85822540765074,-22.486063948945002 L40.901340489132394,-22.325156274282993 L40.93675044041947,-22.162379355261432 L40.964375046583264,-21.998101933956494 L40.984151729005795,-21.832696151564637 L40.99603568714053,-21.666536705383095 L41.0,-21.499999999999996 " />
			<path d="M41.0,-13.482177734375 L41.6,-13.482177734375 " />
			<path d="M41.0,-14.719482421875 L41.6,-14.719482421875 " />
			<path d="M41.0,-15.31591796875 L41.6,-15.31591796875 " />
			<path d="M41.0,-16.37548828125 L41.6,-16.37548828125 " />

       </g>
    </g>
    
</svg>
